<svg version="1.0" xmlns="http://www.w3.org/2000/svg"
 width="862.000000pt" height="260.000000pt" viewBox="0 0 862.000000 260.000000"
 preserveAspectRatio="xMidYMid meet">

<g transform="translate(0.000000,260.000000) scale(0.100000,-0.100000)"
fill="#000000" stroke="none">
<path d="M462 2514 c-62 -31 -95 -68 -136 -154 l-31 -65 -3 -462 -3 -463 466
0 465 0 0 585 0 585 -353 0 -353 0 -52 -26z"/>
<path d="M1340 1955 l0 -585 465 0 465 0 0 438 c0 461 -3 489 -48 578 -33 64
-68 100 -124 128 l-52 26 -353 0 -353 0 0 -585z"/>
<path d="M8049 2236 c-134 -47 -199 -152 -199 -317 0 -113 22 -172 91 -241 69
-70 134 -93 241 -86 217 16 339 222 267 453 -26 85 -97 162 -173 188 -59 20
-175 22 -227 3z m174 -110 c69 -28 107 -102 107 -207 0 -102 -36 -170 -108
-201 -84 -38 -168 -4 -214 86 -32 62 -30 177 3 243 42 80 130 114 212 79z"/>
<path d="M3030 1919 l0 -321 183 4 c193 4 234 13 286 61 76 70 67 247 -16 305
-48 33 -93 42 -209 42 l-114 0 0 55 0 55 165 0 165 0 0 60 0 60 -230 0 -230 0
0 -321z m310 -18 c61 -12 84 -42 77 -100 -8 -70 -28 -81 -153 -81 l-104 0 0
88 c0 49 3 92 7 95 9 10 119 8 173 -2z"/>
<path d="M3652 1923 l3 -318 72 -3 72 -3 24 38 c13 21 69 121 123 221 l99 184
5 -219 5 -218 65 0 65 0 3 318 2 317 -78 0 -79 0 -119 -219 -119 -219 -3 219
-2 219 -70 0 -70 0 2 -317z"/>
<path d="M4386 2018 c-4 -123 -12 -240 -17 -260 -11 -44 -39 -62 -80 -54 l-29
6 0 -54 c0 -53 1 -55 31 -61 56 -12 120 4 155 39 48 48 63 113 71 313 l6 173
89 0 88 0 0 -260 0 -260 65 0 65 0 0 320 0 320 -219 0 -218 0 -7 -222z"/>
<path d="M4960 1920 l0 -320 240 0 240 0 0 60 0 60 -175 0 -175 0 0 80 0 80
155 0 155 0 0 55 0 55 -155 0 -156 0 3 68 3 67 168 3 167 2 0 55 0 55 -235 0
-235 0 0 -320z"/>
<path d="M5490 2180 l0 -60 95 0 95 0 2 -257 3 -258 65 0 65 0 3 258 2 257 95
0 95 0 0 60 0 60 -260 0 -260 0 0 -60z"/>
<path d="M6137 1932 c-64 -169 -117 -314 -117 -320 0 -9 19 -12 67 -10 l68 3
25 70 26 70 119 0 119 0 26 -70 25 -70 68 -3 c50 -2 67 0 67 10 0 7 -52 151
-117 321 l-117 307 -70 0 -71 0 -118 -308z m236 21 l36 -103 -84 0 -85 0 35
98 c20 53 38 103 41 111 8 23 19 3 57 -106z"/>
<path d="M6700 1921 l0 -321 160 0 c237 0 302 20 348 110 42 82 14 188 -59
226 l-30 15 26 20 c40 32 58 76 52 127 -6 54 -31 89 -83 116 -35 19 -60 21
-226 24 l-188 4 0 -321z m341 191 c29 -25 30 -75 1 -105 -18 -18 -36 -22 -117
-25 l-95 -4 0 76 0 76 94 0 c76 0 98 -3 117 -18z m-2 -233 c37 -13 51 -35 51
-82 0 -23 -8 -41 -26 -58 -22 -21 -36 -24 -130 -27 l-104 -4 0 91 0 91 89 0
c48 0 102 -5 120 -11z"/>
<path d="M7280 2180 l0 -60 95 0 95 0 2 -257 3 -258 65 0 65 0 3 258 2 257 95
0 95 0 0 60 0 60 -260 0 -260 0 0 -60z"/>
<path d="M8080 1312 c0 -31 68 -44 90 -17 18 21 6 29 -19 13 -17 -10 -25 -10
-41 0 -23 14 -30 15 -30 4z"/>
<path d="M7155 1263 c-78 -20 -110 -124 -60 -199 22 -34 85 -49 128 -30 48 20
67 51 67 111 0 60 -19 91 -66 111 -35 15 -37 15 -69 7z m66 -52 c19 -15 24
-29 24 -66 0 -37 -5 -51 -24 -66 -30 -24 -42 -24 -75 2 -21 16 -26 29 -26 64
0 35 5 48 26 64 33 26 45 26 75 2z"/>
<path d="M292 943 c3 -302 5 -321 26 -374 32 -82 75 -135 132 -167 l50 -27 0
-122 c0 -119 0 -122 26 -142 33 -26 65 -27 95 -2 22 18 24 28 29 138 l5 118
625 0 625 0 5 -118 c5 -110 7 -120 29 -138 30 -25 62 -24 95 2 26 20 26 23 26
142 l0 122 50 27 c57 32 99 85 132 167 22 54 23 68 23 371 l0 315 -988 3 -988
2 3 -317z m507 64 c92 -61 108 -201 33 -280 -39 -41 -74 -57 -127 -57 -143 0
-224 165 -142 289 53 80 156 101 236 48z m1150 0 c92 -61 108 -201 33 -280
-39 -41 -74 -57 -127 -57 -143 0 -224 165 -142 289 53 80 156 101 236 48z
m-477 -109 c27 -22 30 -53 7 -81 l-20 -27 -178 0 c-164 0 -179 2 -196 20 -23
25 -23 70 1 87 25 18 363 19 386 1z"/>
<path d="M3030 1145 l0 -115 70 0 c62 0 74 3 95 25 59 58 9 125 -91 125 -27 0
-34 4 -34 20 0 18 7 20 65 20 58 0 65 2 65 20 0 18 -7 20 -85 20 l-85 0 0
-115z m133 -26 c19 -31 1 -49 -48 -49 -43 0 -45 1 -45 28 0 16 3 32 7 36 13
12 76 2 86 -15z"/>
<path d="M3260 1145 l0 -115 25 0 c20 0 32 13 67 78 l43 77 3 -77 c3 -75 4
-78 27 -78 l25 0 0 115 0 115 -30 0 c-28 0 -33 -7 -67 -75 -21 -41 -41 -75
-45 -75 -4 0 -8 34 -8 75 0 68 -2 75 -20 75 -19 0 -20 -7 -20 -115z"/>
<path d="M3526 1238 c-3 -13 -6 -53 -6 -90 0 -57 -3 -70 -20 -80 -40 -25 -13
-56 31 -35 28 15 37 42 38 125 l1 63 33 -3 32 -3 3 -92 c2 -85 4 -93 22 -93
19 0 20 7 20 115 l0 115 -74 0 c-68 0 -74 -2 -80 -22z"/>
<path d="M3730 1145 l0 -115 85 0 c78 0 85 2 85 20 0 18 -7 20 -60 20 l-60 0
0 30 c0 30 1 30 55 30 48 0 55 2 55 20 0 18 -7 20 -55 20 -52 0 -55 1 -55 25
0 24 3 25 60 25 53 0 60 2 60 20 0 18 -7 20 -85 20 l-85 0 0 -115z"/>
<path d="M3930 1240 c0 -16 7 -20 35 -20 l35 0 0 -95 c0 -88 2 -95 20 -95 18
0 20 8 22 93 l3 92 33 3 c24 2 32 8 32 23 0 17 -8 19 -90 19 -83 0 -90 -1 -90
-20z"/>
<path d="M4150 1145 l0 -115 60 0 c51 0 65 4 85 25 56 55 10 125 -81 125 -21
0 -24 5 -24 40 0 33 -3 40 -20 40 -19 0 -20 -7 -20 -115z m108 -14 c8 -4 12
-19 10 -32 -2 -20 -10 -25 -40 -27 -36 -3 -38 -2 -38 26 0 16 3 32 7 35 9 10
45 8 61 -2z"/>
<path d="M4350 1145 c0 -108 1 -115 20 -115 19 0 20 7 20 115 0 108 -1 115
-20 115 -19 0 -20 -7 -20 -115z"/>
<path d="M4530 1145 l0 -115 25 0 c23 0 25 3 25 51 l0 50 48 -3 47 -3 3 -47
c3 -40 6 -48 23 -48 18 0 19 8 19 115 0 107 -1 115 -19 115 -16 0 -20 -8 -23
-42 l-3 -43 -47 -3 -48 -3 0 45 c0 42 -2 46 -25 46 l-25 0 0 -115z"/>
<path d="M4796 1158 c-22 -57 -41 -109 -44 -115 -2 -8 5 -13 22 -13 19 0 27 6
32 25 5 22 11 25 54 25 43 0 49 -3 54 -25 5 -19 13 -25 32 -25 17 0 24 5 22
13 -69 190 -83 217 -108 217 -23 0 -29 -10 -64 -102z m83 1 c6 -18 11 -34 11
-35 0 -2 -13 -4 -30 -4 -16 0 -30 2 -30 4 0 14 24 66 30 66 4 0 13 -14 19 -31z"/>
<path d="M5111 1150 c-22 -61 -41 -113 -41 -115 0 -3 9 -5 20 -5 13 0 22 9 26
25 6 22 11 25 55 25 43 0 51 -3 61 -25 6 -14 19 -25 30 -25 10 0 18 2 18 5 0
2 -19 54 -41 115 -36 95 -44 110 -64 110 -20 0 -28 -15 -64 -110z m87 3 c12
-37 8 -43 -30 -43 -26 0 -28 3 -22 23 24 77 32 81 52 20z"/>
<path d="M5310 1144 l0 -116 81 4 c66 3 83 7 95 23 20 27 17 62 -5 84 -17 17
-18 21 -5 32 22 18 13 61 -16 76 -14 7 -53 13 -87 13 l-63 0 0 -116z m131 70
c20 -24 -1 -48 -45 -52 -35 -3 -36 -2 -36 32 0 34 2 36 34 36 18 0 39 -7 47
-16z m0 -84 c44 -24 11 -70 -50 -70 -29 0 -31 2 -31 40 0 38 2 40 31 40 17 0
39 -5 50 -10z"/>
<path d="M5530 1240 c0 -16 7 -20 35 -20 l35 0 0 -95 c0 -88 1 -95 20 -95 19
0 20 7 20 95 l0 95 35 0 c28 0 35 4 35 20 0 19 -7 20 -90 20 -83 0 -90 -1 -90
-20z"/>
<path d="M5791 1246 c-49 -27 -66 -107 -36 -166 19 -37 43 -50 93 -50 76 0
126 73 103 151 -21 69 -97 100 -160 65z m99 -36 c14 -14 20 -33 20 -65 0 -79
-66 -114 -109 -59 -59 75 24 189 89 124z"/>
<path d="M6000 1145 l0 -115 69 0 c82 0 121 23 121 71 0 45 -31 69 -91 69 -49
0 -50 1 -47 28 3 25 7 27 48 28 69 3 70 3 70 19 0 12 -16 15 -85 15 l-85 0 0
-115z m138 -17 c32 -32 1 -68 -57 -68 -29 0 -31 2 -31 40 0 40 0 40 38 40 21
0 43 -5 50 -12z"/>
<path d="M6223 1248 c3 -7 20 -45 37 -85 34 -76 34 -103 0 -103 -11 0 -20 -7
-20 -15 0 -21 53 -19 73 3 9 10 36 61 61 115 44 95 45 97 22 97 -19 0 -27 -11
-47 -60 -13 -33 -27 -60 -30 -60 -4 0 -18 27 -32 60 -21 46 -31 60 -48 60 -13
0 -19 -5 -16 -12z"/>
<path d="M6487 1240 c-37 -29 -52 -83 -38 -131 15 -51 53 -79 106 -79 36 0 48
5 69 31 14 17 26 35 26 40 0 18 -33 9 -56 -16 -47 -51 -104 -18 -104 60 0 51
25 85 63 85 13 0 32 -9 42 -20 10 -11 26 -20 36 -20 16 0 17 3 8 24 -22 47
-106 62 -152 26z"/>
<path d="M6690 1145 l0 -115 59 0 c72 0 111 25 111 71 0 42 -31 69 -80 69
l-40 0 0 45 c0 41 -2 45 -25 45 l-25 0 0 -115z m118 -17 c29 -29 2 -68 -47
-68 -18 0 -21 6 -21 40 0 37 2 40 28 40 15 0 33 -5 40 -12z"/>
<path d="M6890 1145 l0 -115 25 0 25 0 0 115 0 115 -25 0 -25 0 0 -115z"/>
<path d="M7340 1145 c0 -107 1 -115 19 -115 17 0 20 8 23 48 l3 47 48 3 47 3
0 -50 c0 -48 2 -51 25 -51 l25 0 0 115 0 115 -25 0 c-23 0 -25 -4 -25 -45 l0
-45 -50 0 -50 0 0 45 c0 38 -3 45 -20 45 -19 0 -20 -7 -20 -115z"/>
<path d="M7606 1238 c-3 -13 -6 -53 -6 -90 0 -57 -3 -70 -20 -80 -40 -25 -13
-56 31 -35 28 15 37 42 38 125 l1 63 33 -3 32 -3 3 -92 c2 -85 4 -93 22 -93
19 0 20 7 20 115 l0 115 -74 0 c-68 0 -74 -2 -80 -22z"/>
<path d="M7863 1243 c-3 -10 -23 -62 -44 -115 l-37 -98 24 0 c17 0 27 8 34 25
8 21 16 25 53 25 37 0 46 -4 55 -25 8 -17 20 -25 36 -25 l24 0 -43 113 c-38
100 -46 112 -69 115 -18 2 -28 -2 -33 -15z m57 -110 c0 -8 -12 -13 -29 -13
l-29 0 16 42 16 41 13 -29 c7 -16 12 -35 13 -41z"/>
<path d="M8040 1145 l0 -115 25 0 c20 0 32 13 67 78 l43 77 3 -77 c3 -75 4
-78 27 -78 l25 0 0 115 0 115 -30 0 c-28 0 -33 -7 -67 -75 -21 -41 -41 -75
-45 -75 -4 0 -8 34 -8 75 0 68 -2 75 -20 75 -19 0 -20 -7 -20 -115z"/>
<path d="M8280 1145 l0 -115 25 0 c23 0 25 3 25 51 l0 50 48 -3 47 -3 3 -47
c3 -40 6 -48 23 -48 18 0 19 8 19 115 0 107 -1 115 -19 115 -16 0 -20 -8 -23
-42 l-3 -43 -47 -3 -48 -3 0 45 c0 42 -2 46 -25 46 l-25 0 0 -115z"/>
</g>
</svg>
