<?xml version="1.0" encoding="UTF-8"?>
<svg version="1.1" xmlns="http://www.w3.org/2000/svg" width="70" height="70">
<path d="M0 0 C18.15 0 36.3 0 55 0 C55 21 55 21 52 25 C51.34 25 50.68 25 50 25 C50 27.31 50 29.62 50 32 C48.125 33.0625 48.125 33.0625 46 34 C45.01 33.505 45.01 33.505 44 33 C44 30.69 44 28.38 44 26 C33.44 26 22.88 26 12 26 C12 27.98 12 29.96 12 32 C11.34 32.66 10.68 33.32 10 34 C7.875 33.625 7.875 33.625 6 33 C6 30.36 6 27.72 6 25 C5.38125 24.7525 4.7625 24.505 4.125 24.25 C2 23 2 23 0 19 C0 12.73 0 6.46 0 0 Z " fill="#F04C38" transform="translate(7,36)"/>
<path d="M0 0 C3.56206722 -0.14567407 7.12336551 -0.23419196 10.6875 -0.3125 C12.19860352 -0.3753418 12.19860352 -0.3753418 13.74023438 -0.43945312 C15.20493164 -0.46362305 15.20493164 -0.46362305 16.69921875 -0.48828125 C17.59471436 -0.51446533 18.49020996 -0.54064941 19.4128418 -0.56762695 C23.22150328 0.26799992 24.66825907 1.92897709 27 5 C27.56762695 8.22973633 27.56762695 8.22973633 27.48828125 11.83203125 C27.47216797 13.12431641 27.45605469 14.41660156 27.43945312 15.74804688 C27.39768274 17.10288157 27.35535809 18.45769928 27.3125 19.8125 C27.28740069 21.18680866 27.26459036 22.56116116 27.24414062 23.93554688 C27.18526461 27.29147976 27.1030642 30.6451809 27 34 C22.68751391 34.02886537 18.37505238 34.04675255 14.0625 34.0625 C12.83080078 34.07087891 11.59910156 34.07925781 10.33007812 34.08789062 C9.16025391 34.09111328 7.99042969 34.09433594 6.78515625 34.09765625 C5.15912476 34.10551147 5.15912476 34.10551147 3.50024414 34.11352539 C1 34 1 34 0 33 C-0.08843793 30.55169574 -0.11528752 28.13179401 -0.09765625 25.68359375 C-0.0962413 24.95253922 -0.09482635 24.22148468 -0.09336853 23.46827698 C-0.08775408 21.12464368 -0.07519922 18.78110461 -0.0625 16.4375 C-0.05748686 14.85221492 -0.05292363 13.26692834 -0.04882812 11.68164062 C-0.03777997 7.7877239 -0.02050572 3.89387795 0 0 Z " fill="#122F5B" transform="translate(35,1)"/>
<path d="M0 0 C0.91120605 0.01047363 1.82241211 0.02094727 2.76123047 0.03173828 C4.09371826 0.03923096 4.09371826 0.03923096 5.453125 0.046875 C7.14864502 0.07418701 7.14864502 0.07418701 8.87841797 0.10205078 C12.46716797 0.14330078 16.05591797 0.18455078 19.75341797 0.22705078 C19.75341797 11.44705078 19.75341797 22.66705078 19.75341797 34.22705078 C10.84341797 34.22705078 1.93341797 34.22705078 -7.24658203 34.22705078 C-7.30845703 29.87517578 -7.37033203 25.52330078 -7.43408203 21.03955078 C-7.46139404 19.67548096 -7.48870605 18.31141113 -7.5168457 16.90600586 C-7.52808472 15.28021606 -7.52808472 15.28021606 -7.53955078 13.62158203 C-7.55526123 12.51661377 -7.57097168 11.41164551 -7.5871582 10.27319336 C-7.0916726 5.84152747 -4.93221739 0.49847448 0 0 Z " fill="#122F5B" transform="translate(14.24658203125,0.77294921875)"/>
<path d="M0 0 C0.99 0 1.98 0 3 0 C3 6.27 3 12.54 3 19 C1.68 19 0.36 19 -1 19 C-1.02683987 16.02077407 -1.04676037 13.04178705 -1.0625 10.0625 C-1.07087891 9.21236328 -1.07925781 8.36222656 -1.08789062 7.48632812 C-1.09111328 6.67744141 -1.09433594 5.86855469 -1.09765625 5.03515625 C-1.10289307 4.2862915 -1.10812988 3.53742676 -1.11352539 2.76586914 C-1 1 -1 1 0 0 Z " fill="#122F5B" transform="translate(1,9)"/>
<path d="M0 0 C0.99 0 1.98 0 3 0 C3 6.27 3 12.54 3 19 C1.68 18.67 0.36 18.34 -1 18 C-1.02684312 15.18743719 -1.04676188 12.37512759 -1.0625 9.5625 C-1.07087891 8.76005859 -1.07925781 7.95761719 -1.08789062 7.13085938 C-1.0965143 5.08704779 -1.0522815 3.04316098 -1 1 C-0.67 0.67 -0.34 0.34 0 0 Z " fill="#122F5B" transform="translate(66,9)"/>
<path d="M0 0 C2.61580479 0.3269756 4.64078137 0.82039068 7 2 C7.22732116 4.80362763 7.34081872 6.46186517 5.8125 8.875 C4 10 4 10 1.375 9.75 C-1 9 -1 9 -2 8 C-2.1875 5.0625 -2.1875 5.0625 -2 2 C-1.34 1.34 -0.68 0.68 0 0 Z " fill="#FDF1EF" transform="translate(48,43)"/>
<path d="M0 0 C3.29714793 0.32971479 4.6226839 0.6226839 7 3 C6.67028521 6.29714793 6.3773161 7.6226839 4 10 C-0.55555556 9.44444444 -0.55555556 9.44444444 -2 8 C-2.1875 5.0625 -2.1875 5.0625 -2 2 C-1.34 1.34 -0.68 0.68 0 0 Z " fill="#FDF2F0" transform="translate(17,43)"/>
<path d="M0 0 C3.3 0 6.6 0 10 0 C10 0.99 10 1.98 10 3 C6.37 3 2.74 3 -1 3 C-0.67 2.01 -0.34 1.02 0 0 Z " fill="#FCE3E0" transform="translate(30,46)"/>
</svg>
